<svg width="49" height="48" viewBox="0 0 49 48" fill="none" xmlns="http://www.w3.org/2000/svg">
<path d="M0.5 24C0.5 10.7452 11.2452 0 24.5 0C37.7548 0 48.5 10.7452 48.5 24C48.5 37.2548 37.7548 48 24.5 48C11.2452 48 0.5 37.2548 0.5 24Z" fill="#7B68EE"/>
<path d="M24.5 16C24.6326 16 24.7598 16.0527 24.8536 16.1464C24.9473 16.2402 25 16.3674 25 16.5V23.5H32C32.1326 23.5 32.2598 23.5527 32.3536 23.6464C32.4473 23.7402 32.5 23.8674 32.5 24C32.5 24.1326 32.4473 24.2598 32.3536 24.3536C32.2598 24.4473 32.1326 24.5 32 24.5H25V31.5C25 31.6326 24.9473 31.7598 24.8536 31.8536C24.7598 31.9473 24.6326 32 24.5 32C24.3674 32 24.2402 31.9473 24.1464 31.8536C24.0527 31.7598 24 31.6326 24 31.5V24.5H17C16.8674 24.5 16.7402 24.4473 16.6464 24.3536C16.5527 24.2598 16.5 24.1326 16.5 24C16.5 23.8674 16.5527 23.7402 16.6464 23.6464C16.7402 23.5527 16.8674 23.5 17 23.5H24V16.5C24 16.3674 24.0527 16.2402 24.1464 16.1464C24.2402 16.0527 24.3674 16 24.5 16Z" fill="white"/>
</svg>
