<svg width="20" height="20" viewBox="0 0 20 20" fill="none" xmlns="http://www.w3.org/2000/svg">
<path d="M15 2H5C3.34315 2 2 3.34315 2 5V15C2 16.6569 3.34315 18 5 18H15C16.6569 18 18 16.6569 18 15V5C18 3.34315 16.6569 2 15 2Z" fill="#7B68EE"/>
<path d="M14 7H6C5.44772 7 5 7.44772 5 8C5 8.55228 5.44772 9 6 9H14C14.5523 9 15 8.55228 15 8C15 7.44772 14.5523 7 14 7Z" fill="white"/>
<path d="M11 11H6C5.44772 11 5 11.4477 5 12C5 12.5523 5.44772 13 6 13H11C11.5523 13 12 12.5523 12 12C12 11.4477 11.5523 11 11 11Z" fill="white"/>
<path d="M12 15H6C5.44772 15 5 15.4477 5 16C5 16.5523 5.44772 17 6 17H12C12.5523 17 13 16.5523 13 16C13 15.4477 12.5523 15 12 15Z" fill="white"/>
</svg>
